HIERARCHY
ROOT Hips
{
  OFFSET 3.13124 94.3669 -3.18751
  CHANNELS  6 Xposition Yposition Zposition Zrotation Xrotation Yrotation
  JOINT LeftUpLeg
  {
    OFFSET 8.64259 1.95398 -2.38835
    CHANNELS 3 Zrotation Xrotation Yrotation
    JOINT LeftLeg
    {
      OFFSET 43.7702 0 0
      CHANNELS 3 Zrotation Xrotation Yrotation
      JOINT LeftFoot
      {
        OFFSET 40.6238 0 0
        CHANNELS 3 Zrotation Xrotation Yrotation
        JOINT LeftToeBase
        {
          OFFSET 12.7242 0 0
          CHANNELS 3 Zrotation Xrotation Yrotation
          End Site
          {
            OFFSET 0 0 0
          }
        }
      }
    }
  }
  JOINT RightUpLeg
  {
    OFFSET -8.2249 1.95398 -2.59336
    CHANNELS 3 Zrotation Xrotation Yrotation
    JOINT RightLeg
    {
      OFFSET 43.5653 0 0
      CHANNELS 3 Zrotation Xrotation Yrotation
      JOINT RightFoot
      {
        OFFSET 40.6238 0 0
        CHANNELS 3 Zrotation Xrotation Yrotation
        JOINT RightToeBase
        {
          OFFSET 12.7242 0 0
          CHANNELS 3 Zrotation Xrotation Yrotation
          End Site
          {
            OFFSET 0 0 0
          }
        }
      }
    }
  }
  JOINT Spine
  {
    OFFSET 0.165834 0.87714 6.61349
    CHANNELS 3 Zrotation Xrotation Yrotation
    JOINT Spine1
    {
      OFFSET 7.38962 1.71661e-005 0
      CHANNELS 3 Zrotation Xrotation Yrotation
      JOINT Spine2
      {
        OFFSET 11.9445 1.14441e-005 0
        CHANNELS 3 Zrotation Xrotation Yrotation
        JOINT Spine3
        {
          OFFSET 14.7254 4.19617e-005 0
          CHANNELS 3 Zrotation Xrotation Yrotation
          JOINT Spine4
          {
            OFFSET 10.9679 0 0
            CHANNELS 3 Zrotation Xrotation Yrotation
            JOINT RightShoulder
            {
              OFFSET 2.46616 -1.6653 3.69651
              CHANNELS 3 Zrotation Xrotation Yrotation
              JOINT RightArm
              {
                OFFSET 13.0012 0 0
                CHANNELS 3 Zrotation Xrotation Yrotation
                JOINT RightForeArm
                {
                  OFFSET 28.7848 1.52588e-005 0
                  CHANNELS 3 Zrotation Xrotation Yrotation
                  JOINT RightHand
                  {
                    OFFSET 26.5688 1.52588e-005 0
                    CHANNELS 3 Zrotation Xrotation Yrotation
                    End Site
                    {
                      OFFSET 0 0 0
                    }
                  }
                }
              }
            }
            JOINT LeftShoulder
            {
              OFFSET 2.38034 -1.29275 -3.75231
              CHANNELS 3 Zrotation Xrotation Yrotation
              JOINT LeftArm
              {
                OFFSET 16.3182 6.10352e-005 0
                CHANNELS 3 Zrotation Xrotation Yrotation
                JOINT LeftForeArm
                {
                  OFFSET 27.0901 0 0
                  CHANNELS 3 Zrotation Xrotation Yrotation
                  JOINT LeftHand
                  {
                    OFFSET 24.5451 1.52588e-005 0
                    CHANNELS 3 Zrotation Xrotation Yrotation
                    End Site
                    {
                      OFFSET 0 0 0
                    }
                  }
                }
              }
            }
            JOINT Neck
            {
              OFFSET 5.0226 -0.0266342 0
              CHANNELS 3 Zrotation Xrotation Yrotation
              JOINT Head
              {
                OFFSET 6.69363 2.86102e-005 0
                CHANNELS 3 Zrotation Xrotation Yrotation
                End Site
                {
                  OFFSET 0 0 0
                }
              }
            }
          }
        }
      }
    }
  }
}
MOTION
Frames:	15
Frame Time:	0.0333333
142.478 84.4981 -90.7795 136.637 77.4956 52.5564 176.774 9.78488 111.333 -80.1448 27.8626 2.92481 29.5719 7.93985 7.06175 28.7808 5.06479e-006 1.36131e-005 -172.313 5.35714 101.863 -62.9607 84.9196 60.3861 86.5072 52.9221 17.931 28.7808 1.51332e-005 1.89518e-005 0.582764 5.56739 -90.1693 15.753 1.35106 -0.918455 4.08241 1.30935 -0.976627 -18.4575 1.56445 -0.472846 1.55517 1.56444 -0.472861 84.4885 -38.742 -113.367 40.629 2.64895 10.0117 31.4771 20.0399 -66.1494 -3.12348 -0.980206 36.5602 -79.1489 -44.0841 94.9184 -25.6995 -11.9571 3.18683 -1.02918 -4.82367 -38.8068 24.4965 -0.716329 -7.02713 24.6505 -3.21042 23.0072 -43.8511 -0.550097 -28.5221 
142.73 83.7642 -92.3615 145.495 77.0871 45.4607 173.584 17.1584 111.38 -88.8621 19.6842 2.69372 35.5172 13.504 11.8888 28.7808 5.06479e-006 1.36131e-005 -171.703 3.70035 104.043 -32.4616 80.5658 26.7911 90.2784 52.1367 15.4987 28.7808 1.51332e-005 1.89518e-005 0.712254 5.71136 -90.8818 15.4503 1.58883 -1.02123 3.77983 1.54231 -1.09016 -18.7622 1.82226 -0.493568 1.25046 1.82226 -0.493592 85.1114 -40.0908 -111.768 39.5675 3.12172 9.82569 32.8576 19.1262 -68.2549 -4.81317 -1.71367 38.7007 -79.6219 -45.4447 94.2068 -26.6943 -11.7061 4.38696 -5.57098 -12.3468 -35.5437 30.127 -0.913043 -7.21302 22.0664 -4.71922 22.3152 -39.9985 -2.37033 -28.3781 
142.84 83.0929 -93.6765 146.513 77.0303 45.8115 172.037 23.6953 110.51 -92.0474 11.4144 2.31101 42.2818 16.5775 13.3869 28.7808 5.06479e-006 1.36131e-005 -171.663 4.89616 105.75 -32.8771 79.0468 22.4696 91.2425 53.216 15.2055 28.7808 1.51332e-005 1.89518e-005 0.959081 5.7374 -91.416 15.3864 1.99042 -1.34973 3.71614 1.92908 -1.43603 -18.8293 2.304 -0.68891 1.18333 2.304 -0.688932 86.9179 -38.9836 -109.091 39.7854 2.22612 9.54982 35.4161 18.4089 -70.903 -7.13522 -2.74921 40.2197 -80.0098 -48.2661 93.7197 -26.9136 -11.9193 8.15704 -7.6356 -15.475 -35.7979 31.4814 0.302694 -3.04176 21.7145 -5.10935 24.3261 -38.9717 -3.26951 -29.5821 
142.62 82.5573 -94.9263 146.28 76.5283 46.9027 171.606 27.7783 110.009 -92.1625 8.42122 2.13695 49.9168 21.0924 15.3039 28.7808 5.06479e-006 1.36131e-005 -171.452 4.61834 106.639 -31.4669 77.536 19.3767 94.8996 53.0224 13.1889 28.7808 1.51332e-005 1.89518e-005 1.21427 5.82095 -91.6917 15.2018 2.35606 -1.72174 3.53166 2.27796 -1.82374 -19.0172 2.76449 -0.934244 0.995452 2.76446 -0.934262 89.1948 -36.8508 -105.826 40.7708 0.449765 8.94484 37.8229 17.5407 -73.3599 -9.39141 -3.79815 41.3697 -79.8162 -52.009 94.1654 -25.9413 -12.568 16.3993 -11.9346 -16.1676 -45.0262 27.7767 2.42992 4.94461 23.5506 -4.81355 26.4592 -40.1512 -3.612 -30.1279 
141.921 80.8898 -96.2766 145.526 75.2796 46.9524 172.517 31.7338 107.826 -92.1081 -0.375411 1.61104 54.063 26.43 18.063 28.7808 5.06479e-006 1.36131e-005 -171.121 -3.24059 103.642 -16.4491 73.0719 13.8693 116.727 3.88699 -0.918227 28.7808 1.51332e-005 1.89518e-005 1.54325 5.99769 -90.5956 14.9073 2.67674 -2.13265 3.23722 2.58026 -2.24897 -19.3147 3.194 -1.22188 0.697903 3.194 -1.22191 91.1758 -34.5357 -102.959 41.8112 -1.4653 8.36066 39.5997 16.6145 -75.2946 -11.3834 -4.75227 42.212 -79.0954 -56.9633 95.3654 -25.139 -13.2427 21.1073 -12.5885 -16.0099 -46.6872 26.4355 3.00401 7.64653 23.993 -4.32326 29.8941 -39.7172 -3.78313 -32.5586 
141.026 81.7274 -97.0954 141.958 74.1533 50.9335 171.323 33.7351 110.377 -88.7219 20.4836 2.70769 52.6602 22.6971 15.7649 28.7808 5.06479e-006 1.36131e-005 -171.497 -2.18572 103.811 -38.8465 82.3064 34.2101 108.905 10.2855 0.198934 28.7808 1.51332e-005 1.89518e-005 1.71097 6.05216 -91.2351 14.7833 2.99321 -2.21066 3.11371 2.89306 -2.34014 -19.4435 3.51904 -1.20672 0.56914 3.51903 -1.20673 92.3469 -35.086 -100.593 41.6253 -1.8722 7.40137 38.1581 15.5108 -75.5415 -11.6152 -5.02455 43.6852 -76.5904 -61.0871 98.8027 -24.9964 -13.5192 24.3166 -11.9011 -15.2971 -46.5927 26.5469 3.35244 8.92415 24.099 -4.43085 30.2522 -38.8131 -4.22157 -32.8274 
139.734 81.6751 -98.2237 137.942 72.1364 54.0117 172.05 33.8586 109.924 -85.3116 24.6776 2.86082 54.9876 20.1717 13.3648 28.7808 5.06479e-006 1.36131e-005 -171.84 -2.13707 102.685 -23.3412 77.5886 19.7326 96.2287 6.00787 0.695071 28.7808 1.51332e-005 1.89518e-005 2.0106 6.10551 -91.1147 14.6965 3.53383 -2.43903 3.02785 3.423 -2.59389 -19.5393 4.10371 -1.26734 0.473331 4.10374 -1.26735 93.5279 -34.7586 -98.4692 41.7961 -2.29357 7.77534 36.9952 14.3499 -76.0688 -12.0881 -5.35154 44.603 -75.2133 -66.0839 100.487 -24.9239 -13.7434 26.9537 -12.0865 -15.9127 -45.8162 27.5412 3.57485 9.28779 22.2606 -4.18251 34.1488 -37.7173 -4.08707 -36.2497 
138.004 82.3769 -99.4585 133.61 69.5638 57.7578 173.378 31.2888 109.07 -80.1672 27.476 2.9086 56.08 17.9146 11.6026 28.7808 5.06479e-006 1.36131e-005 -174.457 0.871675 100.936 -29.9391 75.0407 15.8547 91.0341 13.0176 2.8813 28.7808 1.51332e-005 1.89518e-005 2.31772 6.16263 -91.8357 14.5231 4.17882 -2.469 2.8562 4.0661 -2.6514 -19.7278 4.72755 -1.09774 0.28491 4.72759 -1.09774 94.6173 -35.1892 -96.3213 42.0022 -2.74497 7.91846 34.9848 13.2356 -76.162 -12.1391 -5.45019 45.1971 -74.0466 -69.4199 101.821 -26.1873 -13.2957 29.8543 -13.4883 -16.3996 -47.7796 27.7225 3.93936 10.5695 21.5924 -3.82179 37.3364 -37.6105 -3.66536 -39.1688 
136.06 82.1514 -100.757 127.663 66.5929 61.3598 176.46 26.9499 105.319 -71.3702 21.8775 2.26721 63.6554 15.6542 8.92028 28.7808 5.06479e-006 1.36131e-005 -178.198 7.75937 96.5069 -43.0996 70.1895 12.121 86.9796 21.7221 6.50822 28.7808 1.51332e-005 1.89518e-005 2.71175 6.22412 -91.4583 14.438 4.95888 -2.46135 2.77367 4.84593 -2.67704 -19.8342 5.46784 -0.850484 0.178488 5.46785 -0.850497 95.7557 -34.3946 -94.3494 43.1329 -4.09881 8.69842 33.7104 12.2461 -76.6002 -12.7743 -5.71242 44.9158 -73.2454 -71.822 102.668 -27.9423 -12.5439 33.2508 -14.5283 -15.4538 -51.4991 25.2075 4.25439 13.2123 21.4566 -2.9689 41.4924 -38.3611 -2.91503 -42.2858 
133.939 81.8917 -101.824 121.385 63.027 64.639 178.726 22.5045 101.169 -64.7349 12.293 1.52631 75.311 12.3999 5.77339 28.7808 5.06479e-006 1.36131e-005 -179.627 12.5662 91.7205 -47.9415 64.5011 8.07234 82.0754 25.3504 9.09008 28.7808 1.51332e-005 1.89518e-005 3.06484 6.25837 -91.1308 14.3898 5.73747 -2.29142 2.72922 5.63107 -2.54232 -19.908 6.15999 -0.455099 0.104669 6.15999 -0.455121 96.0764 -33.1243 -93.9279 44.9392 -5.9072 10.0035 32.9266 11.6769 -76.8605 -13.9445 -6.08298 43.646 -71.8886 -73.6225 104.177 -29.3601 -11.8442 35.9582 -14.3647 -13.5655 -55.0259 20.8729 4.40143 17.1595 21.4028 -2.00851 44.8148 -38.7449 -2.22219 -44.4659 
131.503 81.6664 -102.751 113.85 59.4894 67.9512 -179.523 20.3623 92.557 -59.1473 -2.6264 0.559382 81.9568 13.4147 5.52695 28.7808 5.06479e-006 1.36131e-005 -179.763 18.6199 85.5366 -52.2939 57.9124 5.65367 77.3476 26.9137 11.1334 28.7808 1.51332e-005 1.89518e-005 3.32347 6.19287 -90.6996 14.5383 6.37754 -1.82615 2.88135 6.29058 -2.10603 -19.7802 6.6295 0.183162 0.232449 6.6295 0.183156 95.1091 -31.6745 -96.1334 47.1913 -7.74704 11.5343 32.6597 11.7767 -76.5887 -15.6032 -6.49489 41.3278 -70.1714 -75.1598 106.056 -29.4588 -11.7103 38.8873 -10.0684 -9.05622 -58.2172 11.0827 3.14314 22.5736 21.1293 -0.940356 47.5048 -38.2924 -1.59084 -46.2827 
128.94 81.6261 -103.176 107.488 56.3218 68.9851 -178.716 19.5325 84.3894 -54.463 -13.8264 -0.232049 86.4637 13.2897 4.99552 28.7808 5.06479e-006 1.36131e-005 -178.414 24.9947 78.2868 -55.7516 51.6095 4.14458 72.6399 26.785 12.4811 28.7808 1.51332e-005 1.89518e-005 3.42106 6.18754 -89.9951 14.5498 6.80345 -0.948881 2.89643 6.76135 -1.24914 -19.7811 6.78508 1.15214 0.231552 6.7851 1.15214 94.0569 -31.4669 -98.2276 47.8917 -8.25305 11.8477 31.2172 11.5801 -76.0133 -15.8414 -6.45787 40.5643 -69.8661 -76.2148 106.321 -26.6796 -12.8724 40.8292 -5.91266 -5.507 -61.7568 -3.57819 -0.406363 25.9657 22.7926 0.914878 49.0101 -39.2695 -0.324903 -47.2813 
126.562 81.7399 -103.182 103.28 54.1193 68.1922 -178.335 20.8216 78.0615 -51.4321 -17.6428 -0.566322 84.5088 12.4022 4.88836 28.7808 5.06479e-006 1.36131e-005 -175.893 30.6184 71.2723 -58.719 47.0721 3.29932 67.9736 25.0664 13.0391 28.7808 1.51332e-005 1.89518e-005 3.24658 6.27918 -89.1647 14.3627 6.8269 0.266935 2.70956 6.82868 -0.0348315 -19.9575 6.42137 2.31223 0.0551837 6.42139 2.31222 93.6354 -32.4921 -98.8237 49.2309 -9.71256 9.10472 27.5578 12.3905 -72.5219 -15.0171 -5.90407 39.1865 -71.3518 -76.277 104.613 -23.346 -14.3732 38.9024 -2.57986 -3.45048 -62.5388 -15.0605 -3.54208 26.2193 26.6279 2.9126 47.4247 -40.8538 0.638675 -45.6942 
124.55 82.1053 -103.121 101.059 52.3238 66.8743 -178.422 21.3314 73.5447 -48.4302 -20.6739 -0.863533 82.0588 12.4578 5.16042 28.7808 5.06479e-006 1.36131e-005 -173.367 34.1118 66.0376 -61.1224 43.17 2.69769 65.6499 23.0314 12.6718 28.7808 1.51332e-005 1.89518e-005 2.83686 6.45165 -88.2501 13.9736 6.44561 1.85513 2.31816 6.52098 1.56856 -20.3106 5.58965 3.71122 -0.297962 5.58963 3.71121 90.2272 -38.6951 -103.402 46.3053 -6.79368 5.47808 22.3074 11.9692 -68.8393 -11.8764 -4.61484 39.1991 -72.5205 -72.5364 103.505 -21.096 -15.4449 34.1925 2.19191 -0.716399 -61.2667 -22.4026 -4.81088 21.4193 33.2666 3.90636 39.2759 -42.253 1.01564 -40.5564 
123.01 82.5211 -102.824 99.8679 50.5702 67.2118 -178.701 21.6812 72.3153 -46.3772 -23.0911 -1.10927 80.2045 12.1623 5.23853 28.7808 5.06479e-006 1.36131e-005 -172.176 35.3 65.3005 -64.4047 40.7259 2.32164 66.9935 21.5516 11.4372 28.7808 1.51332e-005 1.89518e-005 2.45476 6.47014 -87.9281 13.9118 5.82993 2.41408 2.25199 5.93049 2.15446 -20.3414 4.83498 4.05683 -0.328714 4.835 4.05684 85.851 -41.2861 -110.149 45.2455 -4.69479 2.06501 17.7891 12.8873 -62.1942 -9.68648 -3.4935 36.7823 -73.3361 -71.3908 102.584 -18.4473 -16.8033 29.5737 7.24467 3.22652 -54.901 -20.1877 -2.23854 9.22759 35.3306 5.29319 37.4787 -41.6455 2.05176 -40.3507 
